<svg xmlns="http://www.w3.org/2000/svg" fill="none" viewBox="0 0 23 23" height="23" width="23">
<path fill="#2A4494" d="M3 0C1.34315 0 0 1.34315 0 3V20C0 21.6569 1.34315 23 3 23H20C21.6569 23 23 21.6569 23 20V3C23 1.34315 21.6569 0 20 0H3ZM5 16.5C5 17.3284 5.67157 18 6.5 18C7.32843 18 8 17.3284 8 16.5V9.5C8 8.67157 7.32843 8 6.5 8C5.67157 8 5 8.67157 5 9.5V16.5ZM11.5 18C10.6716 18 10 17.3284 10 16.5V6.5C10 5.67157 10.6716 5 11.5 5C12.3284 5 13 5.67157 13 6.5V16.5C13 17.3284 12.3284 18 11.5 18ZM15 16.5C15 17.3284 15.6716 18 16.5 18C17.3284 18 18 17.3284 18 16.5V12.5C18 11.6716 17.3284 11 16.5 11C15.6716 11 15 11.6716 15 12.5V16.5Z" clip-rule="evenodd" fill-rule="evenodd"></path>
</svg>
