<svg width="208" height="218" viewBox="0 0 208 218" fill="none" xmlns="http://www.w3.org/2000/svg">
<path d="M0 0H208V218H0V0Z" fill="#D7DEF3"/>
<g clip-path="url(#clip0)">
<path d="M102.416 84.1039C102.023 83.6324 101.529 83.2547 100.97 82.9985C100.411 82.7423 99.8013 82.6142 99.186 82.6235H40.4734C40.3456 82.6228 40.2201 82.6576 40.1111 82.7241C40.002 82.7905 39.9138 82.886 39.8563 82.9997C39.7988 83.1135 39.7743 83.2409 39.7856 83.3678C39.7969 83.4946 39.8435 83.6158 39.9202 83.7177C41.7009 86.075 46.6107 90.6689 52.0617 90.6689H90.6947L26.7168 167.578C23.1556 171.698 23.9429 178.488 24.4355 181.513C24.453 181.622 24.5019 181.725 24.5764 181.807C24.6509 181.89 24.7478 181.949 24.8554 181.978C24.9629 182.007 25.0766 182.004 25.1826 181.97C25.2887 181.936 25.3826 181.872 25.453 181.786L102.396 89.2167C102.994 88.4989 103.323 87.5965 103.326 86.6639C103.33 85.7312 103.008 84.8263 102.416 84.1039Z" fill="#2A4494"/>
<path d="M142.26 85.1566C142.227 85.0431 142.164 84.9408 142.077 84.8605C141.99 84.7802 141.883 84.7251 141.767 84.7011C141.651 84.677 141.531 84.685 141.419 84.7242C141.307 84.7634 141.209 84.8322 141.133 84.9232L123.646 106.243L120.181 88.3827C120.074 87.7833 119.833 87.2153 119.478 86.7199C119.122 86.2245 118.661 85.8141 118.126 85.5186C117.304 85.0742 116.353 84.9279 115.434 85.1047C114.516 85.2815 113.688 85.7705 113.091 86.4881L72.4514 135.368C71.8565 136.088 71.5312 136.991 71.5312 137.924C71.5312 138.857 71.8565 139.76 72.4514 140.48C72.8453 140.951 73.3397 141.328 73.8987 141.583C74.4576 141.839 75.0668 141.966 75.6816 141.957H107.705L90.7464 163.052C87.1447 167.682 87.8998 174.452 88.4005 177.376C88.4195 177.485 88.4695 177.585 88.5446 177.666C88.6197 177.747 88.7166 177.804 88.8236 177.832C88.9307 177.859 89.0434 177.855 89.1481 177.82C89.2528 177.784 89.3452 177.72 89.414 177.634L119.245 140.444C119.825 139.721 120.136 138.821 120.128 137.895C120.119 136.97 119.79 136.076 119.196 135.364C118.803 134.902 118.313 134.532 117.76 134.281C117.207 134.03 116.606 133.904 115.998 133.911H84.1811L113.907 98.182L117.379 116.103C117.487 116.706 117.729 117.277 118.088 117.775C118.446 118.273 118.912 118.684 119.451 118.979C120.271 119.408 121.214 119.543 122.121 119.361C123.029 119.179 123.847 118.692 124.437 117.982L140.588 98.3308C144.016 93.7892 143.007 87.711 142.26 85.1566Z" fill="#2A4494"/>
<path d="M114.848 80.1696C117.841 80.1696 120.767 79.2853 123.256 77.6287C125.745 75.972 127.684 73.6173 128.83 70.8623C129.975 68.1074 130.275 65.0759 129.691 62.1512C129.107 59.2266 127.666 56.5401 125.549 54.4316C123.433 52.323 120.736 50.8871 117.801 50.3053C114.865 49.7236 111.822 50.0222 109.057 51.1633C106.292 52.3044 103.928 54.2369 102.265 56.7163C100.602 59.1957 99.7148 62.1107 99.7148 65.0926C99.7191 69.09 101.315 72.9224 104.152 75.7489C106.989 78.5755 110.836 80.1653 114.848 80.1696ZM114.848 58.0449C116.244 58.0449 117.609 58.4573 118.769 59.2299C119.93 60.0026 120.835 61.1008 121.369 62.3856C121.903 63.6705 122.043 65.0843 121.771 66.4483C121.498 67.8123 120.826 69.0652 119.839 70.0486C118.852 71.032 117.594 71.7017 116.225 71.973C114.856 72.2444 113.437 72.1051 112.147 71.5729C110.858 71.0407 109.755 70.1394 108.98 68.9831C108.204 67.8267 107.79 66.4672 107.79 65.0765C107.792 63.2123 108.537 61.425 109.86 60.1068C111.183 58.7885 112.977 58.047 114.848 58.0449Z" fill="#2A4494"/>
</g>
<defs>
<clipPath id="clip0">
<rect width="119" height="132" fill="white" transform="translate(24 50)"/>
</clipPath>
</defs>
</svg>
