<svg xmlns="http://www.w3.org/2000/svg" fill="none" viewBox="0 0 32 32" height="32" width="32">
<path fill="#2A4494" d="M27.7529 21.4805C27.7529 22.6886 26.8575 23.668 25.7529 23.668C24.6484 23.668 23.7529 22.6886 23.7529 21.4805C23.7529 20.4729 24.4159 19.0302 24.9785 17.9875C25.3211 17.3523 26.1847 17.3523 26.5274 17.9875C27.0899 19.0302 27.7529 20.4729 27.7529 21.4805Z"></path>
<mask fill="white" id="path-2-inside-1">
<rect transform="rotate(45 14.3145 3.41406)" rx="1" height="16" width="16" y="3.41406" x="14.3145"></rect>
</mask>
<rect mask="url(#path-2-inside-1)" stroke-width="4" stroke="#2A4494" transform="rotate(45 14.3145 3.41406)" rx="1" height="16" width="16" y="3.41406" x="14.3145"></rect>
<path fill="#2A4494" d="M6.75391 14.7278H23.2139C24.1049 14.7278 24.551 15.8049 23.9211 16.4349L15.0216 25.3344C14.631 25.7249 13.9979 25.7249 13.6073 25.3344L4.70785 16.4349C4.07789 15.8049 4.52405 14.7278 5.41496 14.7278L6.75391 14.7278Z"></path>
<path stroke-linejoin="round" stroke-linecap="round" stroke-width="2" stroke="#2A4494" d="M24.2129 14.7227L11.485 1.99473"></path>
</svg>
