<svg xmlns="http://www.w3.org/2000/svg" width="11.349" height="15.319" viewBox="0 0 11.349 15.319"><g transform="translate(7166 20822.992)"><g transform="translate(-7166 -20822.992)"><path d="M0,9.644C0,6.51,5.675,0,5.675,0V15.319A5.675,5.675,0,0,1,0,9.644Z" transform="translate(0 0)" fill="#2a4494"/></g><g transform="translate(-7166 -20819.494)" fill="none"><path d="M5.674-3.5s5.674,6.51,5.674,9.644A5.674,5.674,0,0,1,0,6.146C0,3.012,5.674-3.5,5.674-3.5Z" stroke="none"/><path d="M 5.674149513244629 -1.138442993164063 C 5.202287197113037 -0.5431108474731445 4.632461071014404 0.2026433944702148 4.064537525177002 1.011062145233154 C 1.684937477111816 4.39835262298584 1.499997138977051 5.797792434692383 1.499997138977051 6.146022319793701 C 1.499997138977051 8.447731971740723 3.37257719039917 10.3203125 5.67428731918335 10.3203125 C 7.975996971130371 10.3203125 9.848577499389648 8.447731971740723 9.848577499389648 6.146022319793701 C 9.848577499389648 5.798952102661133 9.664667129516602 4.404402256011963 7.298307418823242 1.031392097473145 C 6.726778984069824 0.2167434692382813 6.150728702545166 -0.5371980667114258 5.674149513244629 -1.138442993164063 M 5.67428731918335 -3.498047828674316 C 5.67428731918335 -3.498047828674316 11.34857749938965 3.012202262878418 11.34857749938965 6.146022319793701 C 11.34857749938965 9.279851913452148 8.808107376098633 11.8203125 5.67428731918335 11.8203125 C 2.540467262268066 11.8203125 -2.86102294921875e-06 9.279851913452148 -2.86102294921875e-06 6.146022319793701 C -2.86102294921875e-06 3.012202262878418 5.67428731918335 -3.498047828674316 5.67428731918335 -3.498047828674316 Z" stroke="none" fill="#2a4494"/></g></g></svg>