<svg xmlns="http://www.w3.org/2000/svg" fill="none" viewBox="0 0 23 36" height="36" width="23">
<path fill="white" d="M10.5996 36C10.3329 36 10.1063 35.9067 9.91961 35.72C9.75961 35.56 9.67961 35.3467 9.67961 35.08V32.28C7.81294 32.12 6.19961 31.6933 4.83961 31C3.47961 30.28 2.43961 29.4 1.71961 28.36C1.02628 27.2933 0.652943 26.16 0.599609 24.96C0.599609 24.7467 0.679609 24.56 0.839609 24.4C1.02628 24.2133 1.23961 24.12 1.47961 24.12H3.55961C4.03961 24.12 4.37294 24.3867 4.55961 24.92C4.82628 26.04 5.51961 27 6.63961 27.8C7.75961 28.6 9.34628 29 11.3996 29C13.6129 29 15.2796 28.6133 16.3996 27.84C17.5196 27.04 18.0796 25.9333 18.0796 24.52C18.0796 23.6133 17.7996 22.88 17.2396 22.32C16.7063 21.76 15.9063 21.2667 14.8396 20.84C13.7729 20.4133 12.1729 19.88 10.0396 19.24C7.95961 18.6533 6.30628 18.0267 5.07961 17.36C3.85294 16.6933 2.93294 15.8667 2.31961 14.88C1.70628 13.8933 1.39961 12.6533 1.39961 11.16C1.39961 9.18667 2.13294 7.52 3.59961 6.16C5.06628 4.77333 7.09294 3.94667 9.67961 3.68V0.92C9.67961 0.653332 9.75961 0.439998 9.91961 0.279999C10.1063 0.0933329 10.3329 0 10.5996 0H12.1196C12.3863 0 12.5996 0.0933329 12.7596 0.279999C12.9463 0.439998 13.0396 0.653332 13.0396 0.92V3.72C14.7463 3.93333 16.1996 4.41333 17.3996 5.16C18.6263 5.90667 19.5463 6.78667 20.1596 7.8C20.7996 8.81333 21.1463 9.82666 21.1996 10.84C21.1996 11.0533 21.1196 11.24 20.9596 11.4C20.8263 11.56 20.6263 11.64 20.3596 11.64H18.2396C17.6796 11.64 17.3329 11.3867 17.1996 10.88C17.0396 9.76 16.4129 8.84 15.3196 8.12C14.2263 7.37333 12.8529 7 11.1996 7C9.38628 7 7.95961 7.34667 6.91961 8.04C5.87961 8.73333 5.35961 9.76 5.35961 11.12C5.35961 12.0267 5.59961 12.7733 6.07961 13.36C6.58628 13.9467 7.34628 14.4667 8.35961 14.92C9.37294 15.3467 10.8529 15.84 12.7996 16.4C15.0663 17.0133 16.8529 17.6533 18.1596 18.32C19.4663 18.96 20.4396 19.7733 21.0796 20.76C21.7196 21.72 22.0396 22.9467 22.0396 24.44C22.0396 26.7067 21.2396 28.5333 19.6396 29.92C18.0396 31.28 15.8396 32.08 13.0396 32.32V35.08C13.0396 35.3467 12.9463 35.56 12.7596 35.72C12.5996 35.9067 12.3863 36 12.1196 36H10.5996Z"></path>
</svg>
