<svg xmlns="http://www.w3.org/2000/svg" fill="none" viewBox="0 0 48 38" height="38" width="48">
<path fill="white" d="M16.3 3.6C16.3 4.1 15.9 4.5 15.4 4.5C14.9 4.5 14.5 4.1 14.5 3.6V0.9C14.5 0.4 14.9 0 15.4 0C15.9 0 16.3 0.4 16.3 0.9V3.6ZM26.5 4.70156L24.6 6.60156C24.2 6.90156 23.6 6.90156 23.3 6.60156C22.9 6.20156 22.9 5.70156 23.3 5.30156L25.2 3.40156C25.6 3.00156 26.1 3.00156 26.5 3.40156C26.9 3.80156 26.9 4.30156 26.5 4.70156ZM7.4999 7.5C7.8999 7.1 7.8999 6.6 7.4999 6.2L5.4999 4.3C5.0999 3.9 4.5999 3.9 4.1999 4.3C3.7999 4.7 3.7999 5.2 4.1999 5.6L6.0999 7.5C6.4999 7.8 7.0999 7.8 7.4999 7.5ZM3.6 14.5C4.1 14.5 4.5 14.9 4.5 15.4C4.5 15.9 4.1 16.3 3.6 16.3H0.9C0.4 16.3 0 15.9 0 15.4C0 14.9 0.4 14.5 0.9 14.5H3.6ZM4.4002 22.4016L2.5002 24.3016C2.1002 24.7016 2.1002 25.2016 2.5002 25.6016C2.9002 26.0016 3.4002 26.0016 3.8002 25.6016L5.7002 23.7016C6.10019 23.3016 6.10019 22.8016 5.7002 22.4016C5.3002 22.0016 4.7002 22.0016 4.4002 22.4016ZM28.9998 9.99844C35.3998 9.99844 40.6998 14.8984 41.1998 21.0984C45.0998 21.9984 47.9998 25.3984 47.9998 29.4984C47.9998 34.1984 44.0998 37.9984 39.3998 37.9984H14.8998C10.0998 37.9984 6.2998 34.1984 6.2998 29.4984C6.2998 26.8984 7.3998 24.5984 9.2998 22.9984C7.4998 21.1984 6.2998 18.6984 6.2998 15.8984C6.2998 10.3984 10.7998 5.89844 16.2998 5.89844C19.8998 5.89844 23.0998 7.79844 24.7998 10.6984C26.0998 10.2984 27.4998 9.99844 28.9998 9.99844ZM16.2998 8.69844C12.2998 8.69844 9.0998 11.8984 9.0998 15.8984C9.0998 18.1984 10.0998 20.1984 11.7998 21.5984C12.7998 21.1984 13.7998 20.9984 14.8998 20.9984H16.7998C17.1998 17.1984 19.2998 13.9984 22.3998 11.9984C21.0998 9.99844 18.7998 8.69844 16.2998 8.69844ZM14.8998 35.5984H39.3998C42.7998 35.5984 45.4998 32.8984 45.4998 29.4984C45.4998 26.2984 43.0998 23.6984 39.8998 23.3984C39.2998 23.3984 38.7998 22.7984 38.7998 22.1984C38.7998 16.7984 34.3998 12.3984 28.9998 12.3984C23.5998 12.3984 19.1998 16.7984 19.1998 22.1984C19.1998 22.8984 18.6998 23.3984 17.9998 23.3984H14.8998C11.4998 23.3984 8.7998 26.0984 8.7998 29.4984C8.7998 32.8984 11.4998 35.5984 14.8998 35.5984Z" clip-rule="evenodd" fill-rule="evenodd"></path>
</svg>
