<svg width="16" height="16" viewBox="0 0 16 16" fill="none" xmlns="http://www.w3.org/2000/svg">
<path d="M7.99978 14.1714C11.9131 14.1714 15.0855 10.999 15.0855 7.08571C15.0855 3.17238 11.9131 0 7.99978 0C4.08645 0 0.914062 3.17238 0.914062 7.08571C0.914062 10.999 4.08645 14.1714 7.99978 14.1714Z" fill="white"/>
<path d="M7.99961 13.4875C11.5342 13.4875 14.3996 10.6221 14.3996 7.0875C14.3996 3.55288 11.5342 0.6875 7.99961 0.6875C4.46499 0.6875 1.59961 3.55288 1.59961 7.0875C1.59961 10.6221 4.46499 13.4875 7.99961 13.4875Z" fill="white"/>
<path d="M1.99779 12.5039C2.17584 12.1923 2.50718 12 2.86604 12H13.134C13.4928 12 13.8242 12.1923 14.0022 12.5039L15.1451 14.5039C15.526 15.1705 15.0446 16 14.2768 16H1.72318C0.955357 16 0.47399 15.1705 0.854936 14.5039L1.99779 12.5039Z" fill="white"/>
<path d="M10.5 2C10.5 2 10.5343 3.36051 11.0869 3.9131C11.6395 4.46569 13 4.5 13 4.5C13 4.5 11.6395 4.53431 11.0869 5.0869C10.5343 5.63949 10.5 7 10.5 7C10.5 7 10.4657 5.63949 9.9131 5.0869C9.36051 4.53431 8 4.5 8 4.5C8 4.5 9.36051 4.46569 9.9131 3.9131C10.4657 3.36051 10.5 2 10.5 2Z" fill="#3E9DD6"/>
<path d="M12 6C12 6 12.0274 7.08841 12.4695 7.53048C12.9116 7.97255 14 8 14 8C14 8 12.9116 8.02745 12.4695 8.46952C12.0274 8.91159 12 10 12 10C12 10 11.9726 8.91159 11.5305 8.46952C11.0884 8.02745 10 8 10 8C10 8 11.0884 7.97255 11.5305 7.53048C11.9726 7.08841 12 6 12 6Z" fill="#3E9DD6"/>
<path d="M5 7C5 7 5.02745 8.08841 5.46952 8.53048C5.91159 8.97255 7 9 7 9C7 9 5.91159 9.02745 5.46952 9.46952C5.02745 9.91159 5 11 5 11C5 11 4.97255 9.91159 4.53048 9.46952C4.08841 9.02745 3 9 3 9C3 9 4.08841 8.97255 4.53048 8.53048C4.97255 8.08841 5 7 5 7Z" fill="#3E9DD6"/>
<path d="M5.05714 2.5C5.05714 2.5 4.6 2.72857 3.91429 3.41429C3.22857 4.1 3 5.01429 3 5.01429" stroke="#3E9DD6" stroke-linecap="round"/>
</svg>
