<svg width="33" height="35" viewBox="0 0 33 35" fill="none" xmlns="http://www.w3.org/2000/svg">
<path d="M16.4324 30.7905C24.5207 30.7905 31.0776 24.2336 31.0776 16.1452C31.0776 8.0569 24.5207 1.5 16.4324 1.5C8.34401 1.5 1.78711 8.0569 1.78711 16.1452C1.78711 24.2336 8.34401 30.7905 16.4324 30.7905Z" fill="#2A4494" stroke="#2A4494" stroke-width="3"/>
<path d="M5.13333 28.4902C5.4004 28.0228 5.89742 27.7344 6.4357 27.7344H26.4274C26.9657 27.7344 27.4627 28.0228 27.7298 28.4902L28.996 30.7059C29.5674 31.7059 28.8453 32.9502 27.6936 32.9502H5.16954C4.01781 32.9502 3.29576 31.7059 3.86717 30.7059L5.13333 28.4902Z" fill="#2A4494" stroke="#2A4494" stroke-width="3"/>
<path d="M21.3275 6.4744C21.3998 6.23883 21.7332 6.23882 21.8055 6.4744L22.7331 9.49793C22.7574 9.57722 22.8195 9.63929 22.8987 9.66361L25.9223 10.5912C26.1579 10.6634 26.1579 10.9969 25.9223 11.0692L22.8988 11.9967C22.8195 12.0211 22.7574 12.0831 22.7331 12.1624L21.8055 15.186C21.7332 15.4215 21.3998 15.4215 21.3275 15.186L20.3999 12.1624C20.3756 12.0831 20.3136 12.0211 20.2343 11.9967L17.2107 11.0692C16.9752 10.9969 16.9752 10.6634 17.2107 10.5912L20.2343 9.66361C20.3136 9.63929 20.3756 9.57722 20.3999 9.49793L21.3275 6.4744Z" fill="#EAEFFD"/>
<path d="M24.4099 14.6892C24.4822 14.4537 24.8156 14.4537 24.8879 14.6892L25.5744 16.9269C25.5987 17.0062 25.6608 17.0683 25.7401 17.0926L27.9777 17.779C28.2133 17.8513 28.2133 18.1848 27.9777 18.2571L25.7401 18.9435C25.6608 18.9678 25.5987 19.0299 25.5744 19.1092L24.8879 21.3469C24.8156 21.5824 24.4822 21.5824 24.4099 21.3469L23.7234 19.1092C23.6991 19.0299 23.637 18.9678 23.5578 18.9435L21.3201 18.2571C21.0845 18.1848 21.0845 17.8513 21.3201 17.779L23.5578 17.0926C23.637 17.0683 23.6991 17.0062 23.7234 16.9269L24.4099 14.6892Z" fill="#EAEFFD"/>
<path d="M10.031 16.7439C10.1033 16.5084 10.4367 16.5084 10.509 16.7439L11.1955 18.9816C11.2198 19.0609 11.2819 19.1229 11.3612 19.1473L13.5988 19.8337C13.8344 19.906 13.8344 20.2395 13.5988 20.3117L11.3612 20.9982C11.2819 21.0225 11.2198 21.0846 11.1955 21.1639L10.509 23.4015C10.4367 23.6371 10.1033 23.6371 10.031 23.4015L9.34453 21.1639C9.3202 21.0846 9.25814 21.0225 9.17885 20.9982L6.94119 20.3117C6.70562 20.2395 6.70562 19.906 6.94119 19.8337L9.17885 19.1473C9.25814 19.1229 9.3202 19.0609 9.34453 18.9816L10.031 16.7439Z" fill="#EAEFFD"/>
<path d="M10.3874 6.72656C10.3874 6.72656 9.44842 7.19604 8.04 8.60446C6.63158 10.0129 6.16211 11.8908 6.16211 11.8908" stroke="#EAEFFD" stroke-width="1.5" stroke-linecap="round"/>
</svg>
