<svg xmlns="http://www.w3.org/2000/svg" width="18.241" height="11.608" viewBox="0 0 18.241 11.608">
  <path id="Group" d="M374.1,985.365a12.861,12.861,0,0,1,2.4-.332,8.788,8.788,0,0,1,2.4.332,8.519,8.519,0,0,1,2.322,1,2,2,0,0,1,1.078,1.575v2.073H370.7v-2.073a1.826,1.826,0,0,1,1.078-1.575A7.288,7.288,0,0,1,374.1,985.365Zm4.063-2.736a2.4,2.4,0,1,1,.746-1.741A2.386,2.386,0,0,1,378.162,982.629Zm6.633,0a2.4,2.4,0,1,1,.746-1.741A2.386,2.386,0,0,1,384.8,982.629Zm-1.741,2.4a8.786,8.786,0,0,1,2.4.332,10.45,10.45,0,0,1,2.4.995,1.826,1.826,0,0,1,1.078,1.575v2.073h-4.975v-2.073a3.581,3.581,0,0,0-1.658-2.9Z" transform="translate(-370.7 -978.4)" fill="#2a4494"/>
</svg>
