<svg xmlns="http://www.w3.org/2000/svg" fill="none" viewBox="0 0 24 24" height="24" width="24">
<mask height="24" width="24" y="0" x="0" maskUnits="userSpaceOnUse" id="mask0">
<path fill="#2A4494" d="M24 12C24 18.6274 18.6274 24 12 24C5.37258 24 0 18.6274 0 12C0 5.37258 5.37258 0 12 0C18.6274 0 24 5.37258 24 12Z"></path>
</mask>
<g mask="url(#mask0)">
<path fill="#2A4494" d="M27 30.5C27 38.5081 20.5081 45 12.5 45C4.49187 45 -2 38.5081 -2 30.5C-2 22.4919 4.49187 16 12.5 16C20.5081 16 27 22.4919 27 30.5Z"></path>
</g>
<path fill="#2A4494" d="M16 10C16 12.2091 14.2091 14 12 14C9.79086 14 8 12.2091 8 10C8 7.79086 9.79086 6 12 6C14.2091 6 16 7.79086 16 10Z"></path>
<path fill="#2A4494" d="M12 21C16.9706 21 21 16.9706 21 12C21 7.02944 16.9706 3 12 3C7.02944 3 3 7.02944 3 12C3 16.9706 7.02944 21 12 21ZM12 24C18.6274 24 24 18.6274 24 12C24 5.37258 18.6274 0 12 0C5.37258 0 0 5.37258 0 12C0 18.6274 5.37258 24 12 24Z" clip-rule="evenodd" fill-rule="evenodd"></path>
</svg>
