<svg xmlns="http://www.w3.org/2000/svg" viewBox="0 0 92.76 92.22"><defs><style>.cls-1{fill:#284695;}</style></defs><g id="Layer_2" data-name="Layer 2"><g id="Layer_1-2" data-name="Layer 1"><path class="cls-1" d="M92.38,89.16,53.49,74.29a3.59,3.59,0,0,0-1.25-.23H23.05L52.49,38.54H79.08c6.68,0,9.27-4.27,10.18-6.26a.52.52,0,0,0-.47-.74H50.85a3.51,3.51,0,0,0-2.7,1.26L12.91,75.33a3.5,3.5,0,0,0,0,4.45,3.58,3.58,0,0,0,2.79,1.28H51.59l26.5,10.13a18.47,18.47,0,0,0,14.37-1A.57.57,0,0,0,92.38,89.16Z"/><path class="cls-1" d="M40.87,31.71C38.69,31.24,33,31.41,30,34.9c-9.69,11.71-18.5,22.3-28.2,34C-.54,72.14-.16,77.6.5,80.14a.54.54,0,0,0,1,.2C14.51,64.59,28.07,48.18,41.12,32.43A.44.44,0,0,0,40.87,31.71Z"/><path class="cls-1" d="M49.67,26.24A13.12,13.12,0,1,0,36.55,13.12,13.14,13.14,0,0,0,49.67,26.24ZM49.67,7a6.12,6.12,0,1,1-6.12,6.12A6.13,6.13,0,0,1,49.67,7Z"/></g></g></svg>