<svg xmlns="http://www.w3.org/2000/svg" fill="none" viewBox="0 0 25 21" height="21" width="25">
<path fill="#2A4494" d="M8.33333 0.839286C8.33333 0.375761 8.70643 0 9.16667 0H15.8333C16.2936 0 16.6667 0.375761 16.6667 0.839286V10.0714C16.6667 10.535 17.0398 10.9107 17.5 10.9107H24.1667C24.6269 10.9107 25 11.2865 25 11.75V20.1429C25 20.6064 24.6269 20.9821 24.1667 20.9821H0.833333C0.373096 20.9821 0 20.6064 0 20.1429V6.71429C0 6.25076 0.373096 5.875 0.833333 5.875H7.5C7.96024 5.875 8.33333 5.49924 8.33333 5.03571V0.839286ZM12.0833 2.09821C12.0833 1.86645 12.2699 1.67857 12.5 1.67857C12.7301 1.67857 12.9167 1.86645 12.9167 2.09821V5.45536C12.9167 5.68712 12.7301 5.875 12.5 5.875C12.2699 5.875 12.0833 5.68712 12.0833 5.45536V2.09821ZM3.33333 7.55357C3.10321 7.55357 2.91667 7.74145 2.91667 7.97321V11.3304C2.91667 11.5621 3.10321 11.75 3.33333 11.75C3.56345 11.75 3.75 11.5621 3.75 11.3304V7.97321C3.75 7.74145 3.56345 7.55357 3.33333 7.55357ZM4.58333 7.97321C4.58333 7.74145 4.76988 7.55357 5 7.55357C5.23012 7.55357 5.41667 7.74145 5.41667 7.97321V11.3304C5.41667 11.5621 5.23012 11.75 5 11.75C4.76988 11.75 4.58333 11.5621 4.58333 11.3304V7.97321ZM19.1667 12.5893C18.9365 12.5893 18.75 12.7772 18.75 13.0089V16.3661C18.75 16.5978 18.9365 16.7857 19.1667 16.7857C19.3968 16.7857 19.5833 16.5978 19.5833 16.3661V13.0089C19.5833 12.7772 19.3968 12.5893 19.1667 12.5893ZM20.4167 13.0089C20.4167 12.7772 20.6032 12.5893 20.8333 12.5893C21.0635 12.5893 21.25 12.7772 21.25 13.0089V16.3661C21.25 16.5978 21.0635 16.7857 20.8333 16.7857C20.6032 16.7857 20.4167 16.5978 20.4167 16.3661V13.0089ZM22.5 12.5893C22.2699 12.5893 22.0833 12.7772 22.0833 13.0089V16.3661C22.0833 16.5978 22.2699 16.7857 22.5 16.7857C22.7301 16.7857 22.9167 16.5978 22.9167 16.3661V13.0089C22.9167 12.7772 22.7301 12.5893 22.5 12.5893Z" clip-rule="evenodd" fill-rule="evenodd"></path>
</svg>
