<svg xmlns="http://www.w3.org/2000/svg" viewBox="0 0 109.96 129.34"><defs><style>.cls-1{fill:#284695;}</style></defs><g id="Layer_2" data-name="Layer 2"><g id="Layer_1-2" data-name="Layer 1"><path class="cls-1" d="M107.65,117.16,48.69,46,75.9,11.32c2.19-2.87,1.57-8.39.81-10.91a.58.58,0,0,0-1-.19L41.44,43.93a3.49,3.49,0,0,0,.06,4.39l67,80.81a.61.61,0,0,0,1-.25C110.11,126.31,110.59,121,107.65,117.16Z"/><path class="cls-1" d="M28.75,42.25A13.12,13.12,0,1,0,15.63,29.13,13.14,13.14,0,0,0,28.75,42.25Zm0-19.24a6.12,6.12,0,1,1-6.12,6.12A6.13,6.13,0,0,1,28.75,23Z"/><path class="cls-1" d="M67.8,88.83,36.66,51.26A3.49,3.49,0,0,0,32,50.58L12.35,63.7l4.38-8.92a6.29,6.29,0,1,0-6.37-2.92L.36,72.28a3.5,3.5,0,0,0,5.08,4.45L33.28,58.15,60.09,90.49,46.23,100.73a3.5,3.5,0,0,0-.68,5l18.28,23.37a.62.62,0,0,0,1.09-.22c.65-2.42,1.42-7.68-1.11-11.16L53.29,104.22,67.22,93.93a3.53,3.53,0,0,0,1.32-3.7A3.64,3.64,0,0,0,67.8,88.83Z"/></g></g></svg>