<svg width="33" height="33" viewBox="0 0 33 33" fill="none" xmlns="http://www.w3.org/2000/svg">
<circle cx="16.5" cy="16.5" r="16.5" fill="#2A4494"/>
<path d="M7 12.804C7 11.4503 8.32081 10.4797 9.64333 10.7685C10.4626 10.9475 11.3446 11.099 12.0874 11.1315C15.5853 11.2842 17.3102 8.86891 20.8087 9.00559C21.9823 9.05144 23.4976 9.38818 24.5878 9.67054C25.4335 9.88957 26 10.6628 26 11.5364V20.2051C26 21.5557 24.6846 22.5262 23.3646 22.2401C22.5111 22.0551 21.5851 21.8975 20.8087 21.8672C17.3102 21.7305 15.5853 24.1458 12.0874 23.993C10.9446 23.9432 9.47225 23.6113 8.40578 23.3315C7.56342 23.1105 7 22.3387 7 21.4678V12.804Z" fill="white"/>
</svg>
