<svg xmlns="http://www.w3.org/2000/svg" width="34.721" height="31" viewBox="0 0 34.721 31">
  <g id="Group_4533" data-name="Group 4533" transform="translate(-1826 -423)">
    <g id="Path_2370" data-name="Path 2370" transform="translate(1833.44 423)" fill="none">
      <path d="M2,0H17.84a2.028,2.028,0,0,1,2,2.054V7.937H0V2.054A2.028,2.028,0,0,1,2,0Z" stroke="none"/>
      <path d="M 3 2.999999523162842 L 3 4.9375 L 16.84000015258789 4.9375 L 16.84000015258789 2.999999523162842 L 3 2.999999523162842 M 2 -4.76837158203125e-07 L 17.84000015258789 -4.76837158203125e-07 C 18.94457054138184 -4.76837158203125e-07 19.84000015258789 0.9197597503662109 19.84000015258789 2.05433988571167 L 19.84000015258789 7.9375 L 0 7.9375 L 0 2.05433988571167 C 0 0.9197597503662109 0.8954296112060547 -4.76837158203125e-07 2 -4.76837158203125e-07 Z" stroke="none" fill="#2a4494"/>
    </g>
    <g id="Path_2369" data-name="Path 2369" transform="translate(1826 427.96)" fill="none">
      <path d="M3,0H31.72a3,3,0,0,1,3,3V15.6a3,3,0,0,1-3,3H24.3V14.117H10.379V18.6H3a3,3,0,0,1-3-3V3A3,3,0,0,1,3,0Z" stroke="none"/>
      <path d="M 3 3 L 3.000007629394531 3 C 3.000005722045898 3.000002861022949 3.000003814697266 3.000005722045898 3 3 L 3 15.60000038146973 L 7.378910064697266 15.60000038146973 L 7.378910064697266 14.11716079711914 L 7.378910064697266 11.11716079711914 L 10.37891006469727 11.11716079711914 L 24.29883193969727 11.11716079711914 L 27.29883003234863 11.11716079711914 L 27.29883003234863 14.11716079711914 L 27.29883003234863 15.59993553161621 L 31.72000122070312 15.60000038146973 L 31.72000122070312 3 L 25.95654106140137 3 L 8.681739807128906 3 L 3 3 M 3 0 L 8.681739807128906 0 L 25.95654106140137 0 L 31.72000122070312 0 C 33.37685012817383 0 34.72000122070312 1.3431396484375 34.72000122070312 3 L 34.72000122070312 15.60000038146973 C 34.72000122070312 17.25685119628906 33.37685012817383 18.60000038146973 31.72000122070312 18.60000038146973 L 24.29883193969727 18.60000038146973 L 24.29883193969727 14.11716079711914 L 10.37891006469727 14.11716079711914 L 10.37891006469727 18.60000038146973 L 3 18.60000038146973 C 1.343151092529297 18.60000038146973 0 17.25685119628906 0 15.60000038146973 L 0 3 C 0 1.3431396484375 1.343151092529297 0 3 0 Z" stroke="none" fill="#2a4494"/>
    </g>
    <g id="Rectangle_1958" data-name="Rectangle 1958" transform="translate(1833.44 439.12)" fill="none" stroke="#2a4494" stroke-width="3">
      <path d="M0,0H19.84a0,0,0,0,1,0,0V11.88a3,3,0,0,1-3,3H3a3,3,0,0,1-3-3V0A0,0,0,0,1,0,0Z" stroke="none"/>
      <rect x="1.5" y="1.5" width="16.84" height="11.88" rx="1.5" fill="none"/>
    </g>
    <line id="Line_60" data-name="Line 60" x2="8.68" transform="translate(1839.02 448.42)" fill="none" stroke="#2a4494" stroke-width="1.5"/>
    <line id="Line_61" data-name="Line 61" x2="8.68" transform="translate(1839.02 444.7)" fill="none" stroke="#2a4494" stroke-width="1.5"/>
    <g id="Ellipse_12" data-name="Ellipse 12" transform="translate(1830.96 432.92)" fill="none" stroke="#2a4494" stroke-width="3">
      <circle cx="1.24" cy="1.24" r="1.24" stroke="none"/>
      <circle cx="1.24" cy="1.24" r="0.26" fill="none"/>
    </g>
  </g>
</svg>
