<svg xmlns="http://www.w3.org/2000/svg" width="15.916" height="21.055" viewBox="0 0 15.916 21.055">
  <g id="Group_4982" data-name="Group 4982" transform="translate(22032 19873.234)">
    <g id="Rectangle_3816" data-name="Rectangle 3816" transform="translate(-22032 -19867.623)" fill="none" stroke="#3e9dd6" stroke-width="1.5">
      <rect width="4.336" height="7.588" rx="2.168" stroke="none"/>
      <rect x="0.75" y="0.75" width="2.836" height="6.088" rx="1.418" fill="none"/>
    </g>
    <g id="Rectangle_3817" data-name="Rectangle 3817" transform="translate(-22028.748 -19867.623)" fill="none" stroke="#3e9dd6" stroke-width="1.5">
      <rect width="4.336" height="7.588" rx="2.168" stroke="none"/>
      <rect x="0.75" y="0.75" width="2.836" height="6.088" rx="1.418" fill="none"/>
    </g>
    <path id="Path_2926" data-name="Path 2926" d="M-22048.268-19885.984c0,5.928,2.279,9.35,6.785,9.35s7.361-3.311,7.586-8.732c0,0-.082-1.785-1.7-1.713h-3.322c-2.158,0-2.762,3.455,0,3.455h1.973a18.427,18.427,0,0,0-1.973,2.336,5.817,5.817,0,0,0-.73,1.549" transform="translate(17.062 23.706)" fill="none" stroke="#3e9dd6" stroke-linecap="round" stroke-linejoin="round" stroke-width="1.5"/>
    <path id="Path_2927" data-name="Path 2927" d="M-22022.236-19863.979v-1.895c0-2.008-3.234-2.281-3.234,0v3.105a1.8,1.8,0,0,0,1.5,1.912" transform="translate(0.549 0.418)" fill="none" stroke="#3e9dd6" stroke-linecap="round" stroke-width="1.5"/>
    <path id="Path_2928" data-name="Path 2928" d="M-22022.236-19858.59v-7.283c0-2.008-3.234-2.281-3.234,0v7.283" transform="translate(3.801 -5.002)" fill="none" stroke="#3e9dd6" stroke-linecap="round" stroke-width="1.5"/>
  </g>
</svg>
