<svg width="15" height="14" viewBox="0 0 15 14" fill="none" xmlns="http://www.w3.org/2000/svg">
<ellipse cx="7.5" cy="7" rx="7.5" ry="7" fill="#2A4494"/>
<path d="M4.01584 9.44946V9.13841C4.01584 8.92068 4.1267 8.81182 4.34842 8.81182H5.69457C5.91629 8.81182 6.02715 8.92068 6.02715 9.13841V9.26283C6.02715 9.65682 6.10633 9.92639 6.26471 10.0715C6.42308 10.2167 6.71342 10.2893 7.13575 10.2893H7.88009C8.29186 10.2893 8.57692 10.2115 8.73529 10.056C8.90422 9.90047 8.98869 9.61016 8.98869 9.18507V8.99844C8.98869 8.69777 8.86199 8.46967 8.6086 8.31415C8.36576 8.14826 8.05958 8.04977 7.69005 8.01866C7.32051 7.98756 6.91931 7.93053 6.48643 7.84759C6.0641 7.75428 5.66818 7.64023 5.29864 7.50544C4.92911 7.36029 4.61765 7.08554 4.36425 6.68118C4.12142 6.26646 4 5.73769 4 5.09487V4.55054C4 3.74183 4.23228 3.11457 4.69683 2.66874C5.16139 2.22291 5.80543 2 6.62896 2H8.21267C9.04676 2 9.69608 2.22291 10.1606 2.66874C10.6252 3.11457 10.8575 3.74183 10.8575 4.55054V4.84603C10.8575 5.06376 10.7466 5.17263 10.5249 5.17263H9.17873C8.95701 5.17263 8.84615 5.06376 8.84615 4.84603V4.75272C8.84615 4.34837 8.76697 4.07361 8.6086 3.92846C8.45023 3.78331 8.15988 3.71073 7.73756 3.71073H7.11991C6.68703 3.71073 6.3914 3.79367 6.23303 3.95956C6.08522 4.11509 6.01131 4.42613 6.01131 4.89269V5.18818C6.01131 5.67548 6.44419 5.95542 7.30995 6.02799C8.20739 6.10057 9.00452 6.27683 9.70136 6.55676C10.0709 6.71229 10.3771 6.99222 10.6199 7.39658C10.8733 7.79056 11 8.2986 11 8.92068V9.44946C11 10.2582 10.7677 10.8854 10.3032 11.3313C9.83861 11.7771 9.19457 12 8.37104 12H6.6448C5.82127 12 5.17722 11.7771 4.71267 11.3313C4.24811 10.8854 4.01584 10.2582 4.01584 9.44946Z" fill="white"/>
</svg>
