<svg xmlns="http://www.w3.org/2000/svg" viewBox="0 0 103.15 114.85"><defs><style>.cls-1{fill:#284695;}</style></defs><g id="Layer_2" data-name="Layer 2"><g id="Layer_1-2" data-name="Layer 1"><path class="cls-1" d="M68,29.67a3.57,3.57,0,0,0-2.79-1.28H14.28a.6.6,0,0,0-.48.95c1.54,2.05,5.8,6.05,10.53,6.05H57.81L2.36,102.3c-3.09,3.59-2.41,9.49-2,12.13a.5.5,0,0,0,.88.23L68,34.12A3.51,3.51,0,0,0,68,29.67Z"/><path class="cls-1" d="M102.51,30.59a.56.56,0,0,0-1-.2L86.38,48.94l-3-15.54a3.57,3.57,0,0,0-1.79-2.49,3.51,3.51,0,0,0-4.36.84L42,74.28a3.51,3.51,0,0,0,0,4.45A3.57,3.57,0,0,0,44.76,80H72.52L57.82,98.36c-3.13,4-2.47,9.92-2,12.47a.5.5,0,0,0,.88.22L82.52,78.69a3.51,3.51,0,0,0,0-4.42A3.59,3.59,0,0,0,79.7,73H52.13L77.89,41.92l3,15.6A3.6,3.6,0,0,0,82.7,60a3.49,3.49,0,0,0,4.36-.87l14-17.09C104,38.1,103.16,32.81,102.51,30.59Z"/><path class="cls-1" d="M78.75,26.24A13.12,13.12,0,1,0,65.63,13.12,13.13,13.13,0,0,0,78.75,26.24ZM78.75,7a6.12,6.12,0,1,1-6.12,6.12A6.12,6.12,0,0,1,78.75,7Z"/></g></g></svg>