<svg xmlns="http://www.w3.org/2000/svg" fill="none" viewBox="0 0 28 18" height="18" width="28">
<path fill="#2A4494" d="M22.8053 3.39288C22.8053 5.26672 21.2862 6.78576 19.4124 6.78576C17.5386 6.78576 16.0195 5.26672 16.0195 3.39288C16.0195 1.51904 17.5386 0 19.4124 0C21.2862 0 22.8053 1.51904 22.8053 3.39288Z"></path>
<path fill="#2A4494" d="M18.4315 14.4943C18.6228 14.8021 18.9541 15 19.3165 15H27.056C27.6729 15 28.1252 14.4496 27.9212 13.8675C27.2253 11.8818 25.1305 7.98047 19.4118 7.98047C17.3857 7.98047 15.8145 8.47017 14.5993 9.19088C13.964 9.56761 14.1142 10.4675 14.7504 10.8426C16.4485 11.844 17.6248 13.1966 18.4315 14.4943Z"></path>
<path fill="#2A4494" d="M11.9469 6.10382C11.9469 7.97765 10.4279 9.4967 8.55403 9.4967C6.68019 9.4967 5.16115 7.97765 5.16115 6.10382C5.16115 4.22998 6.68019 2.71094 8.55403 2.71094C10.4279 2.71094 11.9469 4.22998 11.9469 6.10382Z"></path>
<path fill="#2A4494" d="M0.913125 18C0.294777 18 -0.157308 17.4474 0.0517197 16.8654C0.763559 14.8836 2.90218 11 8.73146 11C14.5607 11 16.6994 14.8836 17.4112 16.8654C17.6202 17.4474 17.1681 18 16.5498 18H0.913125Z"></path>
</svg>
