<svg xmlns="http://www.w3.org/2000/svg" fill="none" viewBox="0 0 25 24" height="24" width="25">
<path fill="#2A4494" d="M11.8182 0.455132C11.8182 0.117231 12.1738 -0.10254 12.476 0.0485741L16.0051 1.8131C16.3401 1.98061 16.3401 2.45871 16.0051 2.62622L13.1818 4.03784V6.99824C15.5509 7.04041 17.7332 7.30088 19.5455 7.7149V2.27331C19.5455 1.93541 19.9011 1.71564 20.2033 1.86676L23.7323 3.63129C24.0674 3.7988 24.0674 4.27689 23.7323 4.4444L20.9091 5.85603V8.07651C21.0068 8.10645 21.1029 8.1369 21.1975 8.16784C22.3025 8.5295 23.1639 8.95029 23.7395 9.39568C24.3212 9.84579 24.5455 10.2663 24.5455 10.6286C24.5455 10.9908 24.3212 11.4113 23.7395 11.8614C23.1639 12.3068 22.3025 12.7276 21.1975 13.0893C18.9923 13.811 15.9172 14.2649 12.5 14.2649C9.08279 14.2649 6.00773 13.811 3.80255 13.0893C2.69748 12.7276 1.8361 12.3068 1.26047 11.8614C0.678754 11.4113 0.454545 10.9908 0.454545 10.6286C0.454545 10.2663 0.678754 9.84579 1.26047 9.39568C1.80692 8.97287 2.61088 8.57223 3.63636 8.2233V1.81877C3.63636 1.48087 3.99196 1.2611 4.29419 1.41221L7.82325 3.17674C8.15827 3.34425 8.15827 3.82235 7.82325 3.98986L5 5.40148V7.82391C6.89665 7.3468 9.24753 7.044 11.8182 6.99824V0.455132Z"></path>
<path fill="#2A4494" d="M24.2959 12.5804C24.5482 12.3852 25 12.5584 25 12.8774V19.7195C25 21.5878 21.1732 23.1635 15.9449 23.653C15.6808 23.6778 15.4545 23.4686 15.4545 23.2034V18.8104C15.4545 18.5593 15.251 18.3558 15 18.3558H10C9.74896 18.3558 9.54545 18.5593 9.54545 18.8104V23.2034C9.54545 23.4686 9.31917 23.6778 9.05512 23.653C3.82683 23.1635 0 21.5878 0 19.7195V12.8774C0 12.5584 0.451825 12.3852 0.704149 12.5804C1.39359 13.1139 2.36279 13.5746 3.51978 13.9533C5.83871 14.7122 9.01365 15.174 12.5 15.174C15.9863 15.174 19.1613 14.7122 21.4802 13.9533C22.6372 13.5746 23.6064 13.1139 24.2959 12.5804Z"></path>
</svg>
