<svg width="42" height="42" viewBox="0 0 42 42" fill="none" xmlns="http://www.w3.org/2000/svg">
<path d="M13.9116 37.3456C13.6316 37.7656 13.8444 38.4515 14.2518 38.4515L34.0735 37.5164C34.9849 37.4128 36.4325 37.403 37.2474 37.8412C39.15 38.8645 42.0635 41.4542 41.9067 41.8756C41.8017 42.1555 10.8022 41.8756 7.16629 41.8756C7.13343 41.8766 7.10101 41.8679 7.07303 41.8506C7.04506 41.8334 7.02276 41.8083 7.0089 41.7785C6.99504 41.7487 6.99023 41.7155 6.99506 41.683C6.99989 41.6505 7.01415 41.6201 7.03608 41.5956C8.66572 39.5672 18.9 26.8158 22.561 22.3783C26.6575 17.4214 38.0916 3.76011 41.2347 0.151265C41.2973 0.0785403 41.3822 0.028549 41.4762 0.00906555C41.5702 -0.0104179 41.668 0.00169874 41.7544 0.043531C41.8408 0.0853632 41.9109 0.154566 41.9539 0.240378C41.9969 0.32619 42.0103 0.4238 41.9921 0.518029C41.7919 1.55113 41.6393 2.95799 41.0401 3.56133C41.0401 3.56133 28.9914 19.5576 24.8543 24.5943C22.155 27.8825 13.9116 37.3456 13.9116 37.3456Z" fill="white"/>
<path d="M28.0884 4.65042C28.3684 4.23046 28.1556 3.54453 27.7482 3.54453L7.9265 4.47964C7.01508 4.58323 5.56745 4.59303 4.75263 4.15487C2.84859 3.13577 -0.0648788 0.547426 0.0919248 0.126067C0.196927 -0.153905 31.1964 0.126067 34.8323 0.126067C34.8652 0.12508 34.8976 0.133751 34.9256 0.151006C34.9535 0.168262 34.9758 0.193344 34.9897 0.223146C35.0036 0.252948 35.0084 0.28616 35.0035 0.318669C34.9987 0.351178 34.9844 0.381556 34.9625 0.40604C33.3343 2.42884 23.1001 15.1802 19.439 19.6178C15.3425 24.5747 3.90841 38.2359 0.76534 41.8448C0.702704 41.9175 0.617789 41.9675 0.523801 41.987C0.429813 42.0065 0.33202 41.9943 0.24563 41.9525C0.159241 41.9107 0.0890978 41.8415 0.0461091 41.7557C0.00312032 41.6698 -0.0103043 41.5722 0.00792288 41.478C0.208127 40.4449 0.360731 39.038 0.959945 38.4347C0.959945 38.4347 13.0086 22.4385 17.1457 17.4018C19.845 14.1135 28.0884 4.65042 28.0884 4.65042Z" fill="white"/>
</svg>
