<svg width="33" height="33" viewBox="0 0 33 33" fill="none" xmlns="http://www.w3.org/2000/svg">
<circle cx="16.5" cy="16.5" r="16.5" fill="#AE4601"/>
<circle cx="16.6992" cy="22" r="7" fill="white"/>
<path d="M8.9026 6.51246C8.50481 5.8459 8.98507 5 9.76131 5H14.2548C14.6069 5 14.9331 5.18518 15.1135 5.48754L19.291 12.4875C19.6887 13.1541 19.2085 14 18.4322 14H13.9387C13.5866 14 13.2605 13.8148 13.08 13.5125L8.9026 6.51246Z" fill="white"/>
<path d="M24.1716 6.51246C24.5694 5.8459 24.0891 5 23.3129 5H18.8194C18.4673 5 18.1411 5.18518 17.9607 5.48754L13.7833 12.4875C13.3855 13.1541 13.8657 14 14.642 14H19.1355C19.4876 14 19.8138 13.8148 19.9942 13.5125L24.1716 6.51246Z" fill="white"/>
</svg>
