<svg xmlns="http://www.w3.org/2000/svg" width="29.752" height="12.582" viewBox="0 0 29.752 12.582">
  <g id="Group_4514" data-name="Group 4514" transform="translate(4994.002 20771.834)">
    <path id="Path_2914" data-name="Path 2914" d="M-4977-20778.957v-3.865a2.251,2.251,0,0,0-2.261-2.262h-11.706a2.074,2.074,0,0,0-2.286,2.262v4.178c0,1.25.354,2.645,2.281,2.645h6.573" transform="translate(0 14)" fill="none" stroke="#2a4494" stroke-linecap="round" stroke-linejoin="round" stroke-width="1.5"/>
    <path id="Path_2915" data-name="Path 2915" d="M-4977-20778.957v-3.865a2.251,2.251,0,0,0-2.261-2.262h-11.706a2.074,2.074,0,0,0-2.286,2.262v4.178c0,1.25.354,2.645,2.281,2.645h6.573" transform="translate(-9958.252 -41545.086) rotate(180)" fill="none" stroke="#2a4494" stroke-linecap="round" stroke-linejoin="round" stroke-width="1.5"/>
  </g>
</svg>
