<svg xmlns="http://www.w3.org/2000/svg" fill="none" viewBox="0 0 43 34" height="34" width="43">
<path fill="white" d="M34.9948 0H30.4289H12.5711H8.00524C2.5007 0 0 3.6765 0 7.09473C0 8.55317 0.548201 10.0496 1.49441 11.2042C2.40307 12.3132 3.61212 12.9969 4.94883 13.202V14.9946C4.94883 15.6251 5.45197 16.134 6.07527 16.134H9.06409V32.8606C9.06409 33.4911 9.0716 34 9.43957 34C10.9565 34 11.317 32.063 11.317 30.5818V16.1265H16.6037V32.853C16.6037 33.4835 17.1069 33.9924 17.7302 33.9924C18.3535 33.9924 18.8566 33.4835 18.8566 32.853V16.1265H24.1434V32.853C24.1434 33.4835 24.6465 33.9924 25.2698 33.9924C25.8931 33.9924 26.3963 33.4835 26.3963 32.853V16.1265H31.683V30.5742C31.683 32.063 32.021 33.9924 33.5604 33.9924C33.9059 33.9924 33.9359 33.4835 33.9359 32.853V16.1265H36.9247C37.548 16.1265 38.0512 15.6175 38.0512 14.987V13.1944C39.3879 12.9893 40.5969 12.3056 41.5056 11.1966C42.4593 10.042 43 8.54558 43 7.08713C43 3.6765 40.4918 0 34.9948 0ZM7.20922 13.8476V13.1412C8.61352 12.8829 9.52218 12.2828 10.0704 11.7511C10.4233 11.4169 10.7087 11.0295 10.9415 10.6117H32.066C32.2913 11.0295 32.5842 11.4093 32.9371 11.7511C33.4853 12.2828 34.394 12.8829 35.7983 13.1412V13.8552H7.20922V13.8476ZM37.2176 10.9839C34.6568 10.9839 33.7482 9.62422 33.7482 8.35567C33.7482 7.39097 34.4841 6.66935 35.4679 6.66935C35.8659 6.66935 36.1137 6.88963 36.1963 6.98079C36.3165 7.10992 36.354 7.23146 36.3615 7.27703C36.0686 7.81635 36.2564 8.5 36.7896 8.80384C37.3302 9.11528 38.0211 8.93298 38.329 8.38606C38.7345 7.67203 38.7045 6.77569 38.2539 5.97811C37.6907 4.99821 36.6243 4.38293 35.4679 4.38293C33.245 4.38293 31.5028 6.11483 31.4953 8.33289C24.8268 8.33289 18.1657 8.33289 11.4972 8.33289C11.4897 6.11483 9.74747 4.38293 7.52462 4.38293C6.36815 4.38293 5.30178 4.99062 4.73856 5.97811C4.28798 6.77569 4.25795 7.67203 4.66347 8.38606C4.97136 8.93298 5.66224 9.11528 6.20293 8.80384C6.73612 8.4924 6.92386 7.81635 6.63098 7.27703C6.63849 7.22386 6.67604 7.10232 6.79619 6.98079C6.8788 6.88963 7.12662 6.66935 7.52462 6.66935C8.50838 6.66935 9.24432 7.39857 9.24432 8.35567C9.24432 9.62422 8.33566 10.9839 5.77489 10.9839C3.47695 10.9839 2.25288 8.72029 2.25288 7.09473C2.25288 5.81099 2.74101 4.6336 3.62714 3.78284C4.65596 2.80295 6.16539 2.27882 8.00524 2.27882H12.5711H30.4364H34.9948C36.8271 2.27882 38.344 2.80295 39.3729 3.78284C40.259 4.6336 40.7471 5.81099 40.7471 7.09473C40.7471 8.72788 39.5231 10.9839 37.2176 10.9839Z"></path>
</svg>
