<svg width="27" height="27" viewBox="0 0 27 27" fill="none" xmlns="http://www.w3.org/2000/svg">
<path d="M13.5 27C20.9558 27 27 20.9558 27 13.5C27 6.04416 20.9558 0 13.5 0C6.04416 0 0 6.04416 0 13.5C0 20.9558 6.04416 27 13.5 27Z" fill="#EB0000"/>
<path d="M12.584 16.022C12.464 16.022 12.356 15.98 12.26 15.896C12.176 15.8 12.134 15.692 12.134 15.572V7.85C12.134 7.718 12.176 7.61 12.26 7.526C12.356 7.442 12.464 7.4 12.584 7.4H14.654C14.786 7.4 14.894 7.442 14.978 7.526C15.062 7.61 15.104 7.718 15.104 7.85V15.572C15.104 15.692 15.062 15.8 14.978 15.896C14.894 15.98 14.786 16.022 14.654 16.022H12.584ZM12.512 20C12.38 20 12.272 19.958 12.188 19.874C12.104 19.79 12.062 19.682 12.062 19.55V17.336C12.062 17.204 12.104 17.096 12.188 17.012C12.272 16.916 12.38 16.868 12.512 16.868H14.726C14.846 16.868 14.948 16.916 15.032 17.012C15.128 17.096 15.176 17.204 15.176 17.336V19.55C15.176 19.67 15.134 19.778 15.05 19.874C14.966 19.958 14.858 20 14.726 20H12.512Z" fill="white"/>
</svg>
