<svg xmlns="http://www.w3.org/2000/svg" width="23" height="32.059" viewBox="0 0 23 32.059">
  <g id="Group_4530" data-name="Group 4530" transform="translate(17935 12169)">
    <g id="Path_2383" data-name="Path 2383" transform="translate(-17935 -12169)" fill="none" stroke-linecap="round" stroke-linejoin="round">
      <path d="M11.5,0A11.5,11.5,0,0,1,23,11.5a11.632,11.632,0,0,1-4.187,8.876c-.137.12-.675.537-.675.537V22.72c0,1.665-1.782,2.323-3.054,2.323H8.2c-1.341,0-2.774-.521-2.774-2.323V21.247s-.539-.339-.933-.627A11.341,11.341,0,0,1,0,11.5,11.5,11.5,0,0,1,11.5,0Z" stroke="none"/>
      <path d="M 11.5 2.999994277954102 C 6.813079833984375 2.999994277954102 3 6.813083648681641 3 11.50000476837158 C 3 14.16897392272949 4.247930526733398 16.73349380493164 6.256790161132812 18.19277381896973 C 6.259000778198242 18.19438552856445 6.261220932006836 18.19599533081055 6.263429641723633 18.1976146697998 C 6.405359268188477 18.30131149291992 6.58984375 18.42540168762207 6.745964050292969 18.52786827087402 C 7.741518974304199 19.01601028442383 8.42693042755127 20.03950500488281 8.42693042755127 21.22308349609375 L 8.42693042755127 22.04296493530273 L 15.08398056030273 22.04296493530273 C 15.10158920288086 22.04296493530273 15.11949348449707 22.04238319396973 15.13749980926514 22.04130172729492 L 15.13749980926514 20.91289520263672 C 15.13749980926514 19.98536491394043 15.5665397644043 19.10999488830566 16.29964065551758 18.54176330566406 C 16.49922752380371 18.38706016540527 16.76991653442383 18.17397308349609 16.84824371337891 18.10852432250977 C 18.91012763977051 16.31480026245117 20 14.02968978881836 20 11.50000476837158 C 20 6.813083648681641 16.18692016601562 2.999994277954102 11.5 2.999994277954102 M 11.5 -5.7220458984375e-06 C 17.85127067565918 -5.7220458984375e-06 23 5.148723602294922 23 11.50000476837158 C 23 14.96142482757568 21.4707202911377 18.06566429138184 18.81253051757812 20.37604522705078 C 18.67534065246582 20.49601364135742 18.13750076293945 20.91289520263672 18.13750076293945 20.91289520263672 C 18.13750076293945 20.91289520263672 18.13750076293945 21.05502510070801 18.13750076293945 22.71972465515137 C 18.13750076293945 24.38442420959473 16.35503005981445 25.04296493530273 15.08398056030273 25.04296493530273 C 13.28227043151855 25.04296493530273 9.542010307312012 25.04296493530273 8.201169967651367 25.04296493530273 C 6.860330581665039 25.04296493530273 5.426929473876953 24.52190399169922 5.426929473876953 22.71972465515137 C 5.426929473876953 21.399658203125 5.426929473876953 21.22308349609375 5.426929473876953 21.22308349609375 L 5.426929473876953 21.24663543701172 C 5.426929473876953 21.24663543701172 4.887630462646484 20.90783500671387 4.493619918823242 20.61996459960938 C 1.865930557250977 18.71114349365234 0 15.32347393035889 0 11.50000476837158 C 0 5.148723602294922 5.14872932434082 -5.7220458984375e-06 11.5 -5.7220458984375e-06 Z" stroke="none" fill="#2a4494"/>
    </g>
    <path id="Path_2384" data-name="Path 2384" d="M13.5,0a6.211,6.211,0,0,0-6,6" transform="translate(-17937 -12163.5)" fill="none" stroke="#2a4494" stroke-linecap="round" stroke-width="1.5"/>
    <path id="Path_2385" data-name="Path 2385" d="M-.158,0H8.969" transform="translate(-17927.5 -12141.5)" fill="none" stroke="#2a4494" stroke-linecap="round" stroke-width="3"/>
    <path id="Path_2386" data-name="Path 2386" d="M-18458.2-10643.437h3.957a2.029,2.029,0,0,1-1.93,1A2.279,2.279,0,0,1-18458.2-10643.437Z" transform="translate(533 -1495)" fill="#2a4494" stroke="#2a4494" stroke-linejoin="round" stroke-width="1"/>
  </g>
</svg>
