<svg width="168" height="161" viewBox="0 0 168 161" fill="none" xmlns="http://www.w3.org/2000/svg">
<path d="M74.8768 6.32722C78.4107 -1.54653 89.5894 -1.54653 93.1232 6.32723L109.951 43.8197C111.405 47.0596 114.468 49.2853 117.999 49.6671L158.856 54.085C167.437 55.0128 170.891 65.6444 164.495 71.4385L134.037 99.028C131.405 101.412 130.235 105.013 130.963 108.489L139.387 148.712C141.156 157.159 132.112 163.73 124.625 159.437L88.9741 138.996C85.8933 137.23 82.1067 137.23 79.0259 138.996L43.3748 159.437C35.8877 163.73 26.844 157.159 28.6131 148.712L37.037 108.489C37.765 105.013 36.5949 101.412 33.9629 99.028L3.50534 71.4384C-2.89102 65.6444 0.5634 55.0128 9.14382 54.085L50.0012 49.6671C53.5319 49.2853 56.5953 47.0596 58.0494 43.8197L74.8768 6.32722Z" fill="#2A4494"/>
</svg>
