<svg width="44" height="29" viewBox="0 0 44 29" fill="none" xmlns="http://www.w3.org/2000/svg">
<path fill-rule="evenodd" clip-rule="evenodd" d="M22.7293 21.0345C22.544 21.1223 22.3469 21.1748 22.1474 21.1922C22.0489 21.2007 21.9498 21.2007 21.8513 21.192C21.6523 21.1746 21.4556 21.1221 21.2707 21.0345L0.323748 11.1103C-0.107916 10.9058 -0.107916 10.2927 0.323748 10.0882L21.2707 0.163985C21.7322 -0.0546618 22.2678 -0.0546614 22.7293 0.163985L43.6763 10.0882C44.1079 10.2927 44.1079 10.9058 43.6763 11.1103L22.7293 21.0345ZM39.4679 10.5993L22 2.32335L4.5321 10.5993L22 18.8752L39.4679 10.5993ZM36.0224 18.4353V28.4338C36.0224 28.7462 35.7686 28.9995 35.4555 28.9995H9.00607C8.81565 28.9995 8.64716 28.9058 8.54437 28.7621C8.47818 28.6695 8.43923 28.5562 8.43923 28.4338V18.6546C8.43923 17.8199 8.78595 17.2542 9.66253 17.537L21.2701 23.0365C21.7316 23.2551 22.2672 23.2551 22.7287 23.0365L34.6893 17.3698C35.1438 17.2542 36.0224 17.3698 36.0224 18.4353ZM23.701 25.0807C22.6242 25.5908 21.3746 25.5908 20.2978 25.0807L10.7066 20.5366V26.7367H33.755V20.3173L23.701 25.0807ZM3.41424 25.916C3.10934 26.2435 2.92288 26.6824 2.92288 27.1648C2.92288 28.1783 3.74617 29 4.76175 29C5.32806 29 5.83457 28.7445 6.17189 28.3427C6.43951 28.024 6.60063 27.6132 6.60063 27.1648C6.60063 26.7164 6.43951 26.3056 6.17189 25.9868C6.15187 25.963 6.13125 25.9396 6.11005 25.9168C5.98549 25.7828 5.84112 25.6674 5.68159 25.5753V17.3593C5.68159 16.1228 3.84271 14.4256 3.84271 15.3567V25.5748L3.84192 25.5753C3.68273 25.6673 3.53863 25.7823 3.41424 25.916Z" fill="white"/>
</svg>
