<svg xmlns="http://www.w3.org/2000/svg" viewBox="0 0 130.96 117.12"><defs><style>.cls-1{fill:#284695;}</style></defs><g id="Layer_2" data-name="Layer 2"><g id="Layer_1-2" data-name="Layer 1"><path class="cls-1" d="M68.5,31.42a3.57,3.57,0,0,0-2.79-1.28h-41c-4.71,0-8.8,3.88-10.1,6.06a.62.62,0,0,0,.53.94H58.34L2,105.07C-.73,108.3-.08,114.41.55,116.8a.42.42,0,0,0,.73.16L68.49,35.87A3.51,3.51,0,0,0,68.5,31.42Z"/><path class="cls-1" d="M130.89,36.25c-1.21-2.23-5.06-6.11-10.13-6.11H82.16a3.51,3.51,0,0,0-2.7,1.26l-37.31,45a3.5,3.5,0,0,0,2.67,5.74l30.74.21L57.07,104.68c-3.27,3.77-2.63,9.45-1.89,12a.53.53,0,0,0,.91.19L85.66,81.16a3.51,3.51,0,0,0,0-4.44,3.58,3.58,0,0,0-2.78-1.3l-30.66-.21L83.8,37.14h46.56A.6.6,0,0,0,130.89,36.25Z"/><path class="cls-1" d="M74.26,26.24A13.12,13.12,0,1,0,61.15,13.12,13.13,13.13,0,0,0,74.26,26.24ZM74.26,7a6.12,6.12,0,1,1-6.11,6.12A6.12,6.12,0,0,1,74.26,7Z"/><path class="cls-1" d="M4.74,47.77H25a3.5,3.5,0,0,0,3.5-3.5h0a3.5,3.5,0,0,0-3.5-3.5H4.74a3.5,3.5,0,0,0-3.5,3.5h0A3.5,3.5,0,0,0,4.74,47.77Z"/></g></g></svg>